<?xml version="1.0" encoding="utf-8"?>
<svg xmlns="http://www.w3.org/2000/svg" xmlns:xlink="http://www.w3.org/1999/xlink" style="margin: auto; background: rgb(24, 48, 97); display: block; z-index: 1; position: relative; shape-rendering: auto;" width="2569" height="1300" preserveAspectRatio="xMidYMid" viewBox="0 0 2569 1300">
<g transform=""><path d="M-100 776.84C-40.63 828.94 -41.26 783.95 10.76 783.95S70.9 797.93 121.52 797.93S181.16 773.91 232.28 773.91S290.94 783.84 343.04 783.84S404.3 801 453.8 801S511.32 836.58 564.56 836.58S627.32 838.65 675.32 838.65S736.63 764.97 786.08 764.97S844.14 775.47 896.84 775.47S954.95 759.86 1007.6 759.86S1064.57 774.56 1118.36 774.56S1180.09 782.01 1229.12 782.01S1292.03 822.51 1339.88 822.51S1397.58 763.49 1450.64 763.49S1513.23 816.94 1561.4 816.94S1624.63 793.32 1672.16 793.32S1727.74 762.16 1782.92 762.16S1839.13 791.74 1893.68 791.74S1951.8 806.64 2004.44 806.64S2066.89 812.74 2115.2 812.74S2173.44 810.88 2225.96 810.88S2282.47 787.45 2336.72 787.45S2393.03 813.95 2447.48 813.95S2503.71 833.16 2558.24 833.16S2621.25 826.7 2669 826.7S2731.13 757.98 2779.76 757.98L2669 1300 L-100 1300 Z" fill="#183061" stroke-width="0">
  <animate attributeName="d" dur="41.66666666666667s" repeatCount="indefinite" values="M-100 776.84C-40.63 828.94 -41.26 783.95 10.76 783.95S70.9 797.93 121.52 797.93S181.16 773.91 232.28 773.91S290.94 783.84 343.04 783.84S404.3 801 453.8 801S511.32 836.58 564.56 836.58S627.32 838.65 675.32 838.65S736.63 764.97 786.08 764.97S844.14 775.47 896.84 775.47S954.95 759.86 1007.6 759.86S1064.57 774.56 1118.36 774.56S1180.09 782.01 1229.12 782.01S1292.03 822.51 1339.88 822.51S1397.58 763.49 1450.64 763.49S1513.23 816.94 1561.4 816.94S1624.63 793.32 1672.16 793.32S1727.74 762.16 1782.92 762.16S1839.13 791.74 1893.68 791.74S1951.8 806.64 2004.44 806.64S2066.89 812.74 2115.2 812.74S2173.44 810.88 2225.96 810.88S2282.47 787.45 2336.72 787.45S2393.03 813.95 2447.48 813.95S2503.71 833.16 2558.24 833.16S2621.25 826.7 2669 826.7S2731.13 757.98 2779.76 757.98L2669 1300 L-100 1300 Z;M-100 782.91C-37.32 806.36 -38.5 835.32 10.76 835.32S68.61 800.15 121.52 800.15S179.7 806.63 232.28 806.63S289.32 797.7 343.04 797.7S404.04 781 453.8 781S512.76 805.16 564.56 805.16S625.47 811 675.32 811S734.6 825.6 786.08 825.6S843.45 819.06 896.84 819.06S953.32 756.06 1007.6 756.06S1064.09 797.85 1118.36 797.85S1182 826.51 1229.12 826.51S1292.94 783.47 1339.88 783.47S1397.87 798.11 1450.64 798.11S1508.63 806.88 1561.4 806.88S1616.88 812.59 1672.16 812.59S1732.65 805.76 1782.92 805.76S1842.83 815.07 1893.68 815.07S1957.69 822.47 2004.44 822.47S2061.59 797.74 2115.2 797.74S2172.23 757.26 2225.96 757.26S2288.77 782.97 2336.72 782.97S2392.68 817.37 2447.48 817.37S2507.55 832.53 2558.24 832.53S2617.97 837.19 2669 837.19S2726.56 800.4 2779.76 800.4L2669 1300 L-100 1300 Z;M-100 776.84C-40.63 828.94 -41.26 783.95 10.76 783.95S70.9 797.93 121.52 797.93S181.16 773.91 232.28 773.91S290.94 783.84 343.04 783.84S404.3 801 453.8 801S511.32 836.58 564.56 836.58S627.32 838.65 675.32 838.65S736.63 764.97 786.08 764.97S844.14 775.47 896.84 775.47S954.95 759.86 1007.6 759.86S1064.57 774.56 1118.36 774.56S1180.09 782.01 1229.12 782.01S1292.03 822.51 1339.88 822.51S1397.58 763.49 1450.64 763.49S1513.23 816.94 1561.4 816.94S1624.63 793.32 1672.16 793.32S1727.74 762.16 1782.92 762.16S1839.13 791.74 1893.68 791.74S1951.8 806.64 2004.44 806.64S2066.89 812.74 2115.2 812.74S2173.44 810.88 2225.96 810.88S2282.47 787.45 2336.72 787.45S2393.03 813.95 2447.48 813.95S2503.71 833.16 2558.24 833.16S2621.25 826.7 2669 826.7S2731.13 757.98 2779.76 757.98L2669 1300 L-100 1300 Z"></animate>
  <animateTransform attributeName="transform" type="translate" dur="41.66666666666667s" begin="0s" repeatCount="indefinite" values="0;10;0" calcMode="spline" keySplines="0.3 0 0.7 1;0.3 0 0.7 1"></animateTransform>
</path><path d="M-100 844.9C-42.81 818.14 -42.84 864.75 12.71 864.75S72.23 809.56 125.43 809.56S190.29 825.08 238.14 825.08S298.96 793.52 350.85 793.52S409.46 786.38 463.57 786.38S526.86 859.45 576.28 859.45S638.44 820.58 689 820.58S753.42 786.96 801.71 786.96S862.61 795.2 914.42 795.2S979.28 789.77 1027.14 789.77S1088.61 849.17 1139.85 849.17S1203.09 827.21 1252.56 827.21S1310.71 807.99 1365.28 807.99S1428.44 819.42 1477.99 819.42S1542.35 853.88 1590.71 853.88S1655.57 788.23 1703.42 788.23S1764.61 822.14 1816.13 822.14S1874.09 791.23 1928.85 791.23S1986.97 826.51 2041.56 826.51S2101.19 834.49 2154.27 834.49S2213.79 814.93 2266.99 814.93S2325.22 843.19 2379.7 843.19S2437.1 811.66 2492.42 811.66S2555.13 821.32 2605.13 821.32S2669.93 844.02 2717.84 844.02L2669 1300 L-100 1300 Z" fill="#223064" stroke-width="0">
  <animate attributeName="d" dur="38.88888888888889s" repeatCount="indefinite" values="M-100 844.9C-42.81 818.14 -42.84 864.75 12.71 864.75S72.23 809.56 125.43 809.56S190.29 825.08 238.14 825.08S298.96 793.52 350.85 793.52S409.46 786.38 463.57 786.38S526.86 859.45 576.28 859.45S638.44 820.58 689 820.58S753.42 786.96 801.71 786.96S862.61 795.2 914.42 795.2S979.28 789.77 1027.14 789.77S1088.61 849.17 1139.85 849.17S1203.09 827.21 1252.56 827.21S1310.71 807.99 1365.28 807.99S1428.44 819.42 1477.99 819.42S1542.35 853.88 1590.71 853.88S1655.57 788.23 1703.42 788.23S1764.61 822.14 1816.13 822.14S1874.09 791.23 1928.85 791.23S1986.97 826.51 2041.56 826.51S2101.19 834.49 2154.27 834.49S2213.79 814.93 2266.99 814.93S2325.22 843.19 2379.7 843.19S2437.1 811.66 2492.42 811.66S2555.13 821.32 2605.13 821.32S2669.93 844.02 2717.84 844.02L2669 1300 L-100 1300 Z;M-100 804.64C-37.49 797.45 -40.8 811.23 12.71 811.23S76.51 863.24 125.43 863.24S188.31 781.17 238.14 781.17S297.69 857.63 350.85 857.63S409.87 839.14 463.57 839.14S523.66 864.28 576.28 864.28S634.78 835.03 689 835.03S748.74 830.96 801.71 830.96S858.99 854.91 914.42 854.91S977.51 792.51 1027.14 792.51S1087.22 800.76 1139.85 800.76S1200.39 855.73 1252.56 855.73S1309.63 824.46 1365.28 824.46S1422.32 830.92 1477.99 830.92S1542.69 831.63 1590.71 831.63S1649.01 863.04 1703.42 863.04S1763.17 844.33 1816.13 844.33S1877.81 834.82 1928.85 834.82S1992.89 860.08 2041.56 860.08S2101.06 865.52 2154.27 865.52S2210.65 806.2 2266.99 806.2S2327.19 821.05 2379.7 821.05S2443.45 805.98 2492.42 805.98S2550.3 842.77 2605.13 842.77S2665.05 796.86 2717.84 796.86L2669 1300 L-100 1300 Z;M-100 844.9C-42.81 818.14 -42.84 864.75 12.71 864.75S72.23 809.56 125.43 809.56S190.29 825.08 238.14 825.08S298.96 793.52 350.85 793.52S409.46 786.38 463.57 786.38S526.86 859.45 576.28 859.45S638.44 820.58 689 820.58S753.42 786.96 801.71 786.96S862.61 795.2 914.42 795.2S979.28 789.77 1027.14 789.77S1088.61 849.17 1139.85 849.17S1203.09 827.21 1252.56 827.21S1310.71 807.99 1365.28 807.99S1428.44 819.42 1477.99 819.42S1542.35 853.88 1590.71 853.88S1655.57 788.23 1703.42 788.23S1764.61 822.14 1816.13 822.14S1874.09 791.23 1928.85 791.23S1986.97 826.51 2041.56 826.51S2101.19 834.49 2154.27 834.49S2213.79 814.93 2266.99 814.93S2325.22 843.19 2379.7 843.19S2437.1 811.66 2492.42 811.66S2555.13 821.32 2605.13 821.32S2669.93 844.02 2717.84 844.02L2669 1300 L-100 1300 Z"></animate>
  <animateTransform attributeName="transform" type="translate" dur="38.88888888888889s" begin="-2.592592592592593s" repeatCount="indefinite" values="0;10;0" calcMode="spline" keySplines="0.3 0 0.7 1;0.3 0 0.7 1"></animateTransform>
</path><path d="M-100 850.59C-40.81 865.71 -41.5 810.81 14.74 810.81S73.38 812.06 129.48 812.06S194.68 832.81 244.21 832.81S309.4 852.3 358.95 852.3S417.11 865.99 473.69 865.99S534.51 889.14 588.43 889.14S650.15 872.06 703.16 872.06S761.93 875.01 817.9 875.01S876.25 853.05 932.64 853.05S992.09 846.79 1047.38 846.79S1111.67 860.22 1162.11 860.22S1223.49 892.02 1276.85 892.02S1342.59 818.13 1391.59 818.13S1454.2 877.87 1506.33 877.87S1571.77 866.93 1621.06 866.93S1686.58 854.75 1735.8 854.75S1795.06 843.96 1850.54 843.96S1916.38 872.24 1965.28 872.24S2027.4 824.66 2080.01 824.66S2145.97 840.66 2194.75 840.66S2252.65 843.92 2309.49 843.92S2374.6 873 2424.23 873S2482.46 885.9 2538.96 885.9S2604.37 876.06 2653.7 876.06S2717.99 831.23 2768.44 831.23L2669 1300 L-100 1300 Z" fill="#2b2f66" stroke-width="0">
  <animate attributeName="d" dur="36.111111111111114s" repeatCount="indefinite" values="M-100 850.59C-40.81 865.71 -41.5 810.81 14.74 810.81S73.38 812.06 129.48 812.06S194.68 832.81 244.21 832.81S309.4 852.3 358.95 852.3S417.11 865.99 473.69 865.99S534.51 889.14 588.43 889.14S650.15 872.06 703.16 872.06S761.93 875.01 817.9 875.01S876.25 853.05 932.64 853.05S992.09 846.79 1047.38 846.79S1111.67 860.22 1162.11 860.22S1223.49 892.02 1276.85 892.02S1342.59 818.13 1391.59 818.13S1454.2 877.87 1506.33 877.87S1571.77 866.93 1621.06 866.93S1686.58 854.75 1735.8 854.75S1795.06 843.96 1850.54 843.96S1916.38 872.24 1965.28 872.24S2027.4 824.66 2080.01 824.66S2145.97 840.66 2194.75 840.66S2252.65 843.92 2309.49 843.92S2374.6 873 2424.23 873S2482.46 885.9 2538.96 885.9S2604.37 876.06 2653.7 876.06S2717.99 831.23 2768.44 831.23L2669 1300 L-100 1300 Z;M-100 807.76C-40.8 817.29 -34.14 872.2 14.74 872.2S76.27 871.17 129.48 871.17S192.1 818.84 244.21 818.84S306 880.17 358.95 880.17S418.54 813.91 473.69 813.91S532.11 812.75 588.43 812.75S648.47 839.21 703.16 839.21S763.21 821.49 817.9 821.49S883.67 853.85 932.64 853.85S994.45 826.65 1047.38 826.65S1110.39 885.63 1162.11 885.63S1225.81 834.72 1276.85 834.72S1335.92 870 1391.59 870S1451.16 810.44 1506.33 810.44S1572.05 861.97 1621.06 861.97S1678.89 847.07 1735.8 847.07S1799.86 834.4 1850.54 834.4S1908.62 818.22 1965.28 818.22S2024.18 841.89 2080.01 841.89S2145.78 864.16 2194.75 864.16S2255.72 889.19 2309.49 889.19S2373.82 812.56 2424.23 812.56S2483.2 866.58 2538.96 866.58S2604.71 816.07 2653.7 816.07S2717.64 840.58 2768.44 840.58L2669 1300 L-100 1300 Z;M-100 850.59C-40.81 865.71 -41.5 810.81 14.74 810.81S73.38 812.06 129.48 812.06S194.68 832.81 244.21 832.81S309.4 852.3 358.95 852.3S417.11 865.99 473.69 865.99S534.51 889.14 588.43 889.14S650.15 872.06 703.16 872.06S761.93 875.01 817.9 875.01S876.25 853.05 932.64 853.05S992.09 846.79 1047.38 846.79S1111.67 860.22 1162.11 860.22S1223.49 892.02 1276.85 892.02S1342.59 818.13 1391.59 818.13S1454.2 877.87 1506.33 877.87S1571.77 866.93 1621.06 866.93S1686.58 854.75 1735.8 854.75S1795.06 843.96 1850.54 843.96S1916.38 872.24 1965.28 872.24S2027.4 824.66 2080.01 824.66S2145.97 840.66 2194.75 840.66S2252.65 843.92 2309.49 843.92S2374.6 873 2424.23 873S2482.46 885.9 2538.96 885.9S2604.37 876.06 2653.7 876.06S2717.99 831.23 2768.44 831.23L2669 1300 L-100 1300 Z"></animate>
  <animateTransform attributeName="transform" type="translate" dur="36.111111111111114s" begin="-4.814814814814815s" repeatCount="indefinite" values="0;10;0" calcMode="spline" keySplines="0.3 0 0.7 1;0.3 0 0.7 1"></animateTransform>
</path><path d="M-100 882.72C-34.82 862.71 -35.4 874.01 16.84 874.01S75.91 848.19 133.67 848.19S199.09 886.29 250.51 886.29S317.37 872.37 367.34 872.37S428.27 907.54 484.18 907.54S543.96 845.51 601.01 845.51S667.95 855.37 717.85 855.37S784 910.3 834.68 910.3S893.55 878.27 951.52 878.27S1010.86 875.28 1068.35 875.28S1134.84 870.09 1185.19 870.09S1247.92 909.69 1302.03 909.69S1365.88 906.42 1418.86 906.42S1478.73 881.04 1535.7 881.04S1601.16 904.75 1652.53 904.75S1715.76 854.23 1769.37 854.23S1832.22 874.94 1886.2 874.94S1949.62 927.44 2003.04 927.44S2063.03 903.39 2119.87 903.39S2183.55 849.9 2236.71 849.9S2300.66 892.8 2353.54 892.8S2412.45 903.08 2470.38 903.08S2530.83 855.33 2587.22 855.33S2651.34 855.85 2704.05 855.85L2669 1300 L-100 1300 Z" fill="#342f68" stroke-width="0">
  <animate attributeName="d" dur="33.333333333333336s" repeatCount="indefinite" values="M-100 882.72C-34.82 862.71 -35.4 874.01 16.84 874.01S75.91 848.19 133.67 848.19S199.09 886.29 250.51 886.29S317.37 872.37 367.34 872.37S428.27 907.54 484.18 907.54S543.96 845.51 601.01 845.51S667.95 855.37 717.85 855.37S784 910.3 834.68 910.3S893.55 878.27 951.52 878.27S1010.86 875.28 1068.35 875.28S1134.84 870.09 1185.19 870.09S1247.92 909.69 1302.03 909.69S1365.88 906.42 1418.86 906.42S1478.73 881.04 1535.7 881.04S1601.16 904.75 1652.53 904.75S1715.76 854.23 1769.37 854.23S1832.22 874.94 1886.2 874.94S1949.62 927.44 2003.04 927.44S2063.03 903.39 2119.87 903.39S2183.55 849.9 2236.71 849.9S2300.66 892.8 2353.54 892.8S2412.45 903.08 2470.38 903.08S2530.83 855.33 2587.22 855.33S2651.34 855.85 2704.05 855.85L2669 1300 L-100 1300 Z;M-100 864.97C-35.72 843.51 -38.41 851.98 16.84 851.98S76.52 870.98 133.67 870.98S193.13 844.69 250.51 844.69S315.85 847.99 367.34 847.99S431.14 897.73 484.18 897.73S550.84 884.52 601.01 884.52S662.86 849.12 717.85 849.12S776.59 883.17 834.68 883.17S894.87 920.25 951.52 920.25S1014.25 918.75 1068.35 918.75S1132.33 882.09 1185.19 882.09S1247.12 873.01 1302.03 873.01S1364.03 885.08 1418.86 885.08S1485.57 878.55 1535.7 878.55S1598.41 899.32 1652.53 899.32S1713.39 909.52 1769.37 909.52S1835.89 905.24 1886.2 905.24S1950.24 875.97 2003.04 875.97S2063.38 887.57 2119.87 887.57S2183.35 896.76 2236.71 896.76S2296.61 900.06 2353.54 900.06S2416.28 835.97 2470.38 835.97S2532.3 867.93 2587.22 867.93S2649.16 855.83 2704.05 855.83L2669 1300 L-100 1300 Z;M-100 882.72C-34.82 862.71 -35.4 874.01 16.84 874.01S75.91 848.19 133.67 848.19S199.09 886.29 250.51 886.29S317.37 872.37 367.34 872.37S428.27 907.54 484.18 907.54S543.96 845.51 601.01 845.51S667.95 855.37 717.85 855.37S784 910.3 834.68 910.3S893.55 878.27 951.52 878.27S1010.86 875.28 1068.35 875.28S1134.84 870.09 1185.19 870.09S1247.92 909.69 1302.03 909.69S1365.88 906.42 1418.86 906.42S1478.73 881.04 1535.7 881.04S1601.16 904.75 1652.53 904.75S1715.76 854.23 1769.37 854.23S1832.22 874.94 1886.2 874.94S1949.62 927.44 2003.04 927.44S2063.03 903.39 2119.87 903.39S2183.55 849.9 2236.71 849.9S2300.66 892.8 2353.54 892.8S2412.45 903.08 2470.38 903.08S2530.83 855.33 2587.22 855.33S2651.34 855.85 2704.05 855.85L2669 1300 L-100 1300 Z"></animate>
  <animateTransform attributeName="transform" type="translate" dur="33.333333333333336s" begin="-6.666666666666667s" repeatCount="indefinite" values="0;10;0" calcMode="spline" keySplines="0.3 0 0.7 1;0.3 0 0.7 1"></animateTransform>
</path><path d="M-100 871.82C-35.94 929.19 -36.31 935.51 19.01 935.51S85.89 924.96 138.02 924.96S200.3 940.14 257.03 940.14S318.61 919.99 376.05 919.99S442.96 905.34 495.06 905.34S555.64 922.64 614.07 922.64S680.41 895.15 733.08 895.15S793.23 891.87 852.09 891.87S917.46 933.61 971.1 933.61S1031.67 929.7 1090.11 929.7S1150.57 947.24 1209.13 947.24S1271.44 910.68 1328.14 910.68S1393.81 894.05 1447.15 894.05S1513.75 936.21 1566.16 936.21S1631.27 933.24 1685.17 933.24S1746.02 862.51 1804.18 862.51S1865.94 898.49 1923.19 898.49S1990.14 871.66 2042.21 871.66S2102.43 897.85 2161.22 897.85S2221.8 890.88 2280.23 890.88S2341.93 917.02 2399.24 917.02S2465.01 866.21 2518.25 866.21S2578.34 937.09 2637.26 937.09S2704.87 877.17 2756.28 877.17L2669 1300 L-100 1300 Z" fill="#3d2e69" stroke-width="0">
  <animate attributeName="d" dur="30.555555555555557s" repeatCount="indefinite" values="M-100 871.82C-35.94 929.19 -36.31 935.51 19.01 935.51S85.89 924.96 138.02 924.96S200.3 940.14 257.03 940.14S318.61 919.99 376.05 919.99S442.96 905.34 495.06 905.34S555.64 922.64 614.07 922.64S680.41 895.15 733.08 895.15S793.23 891.87 852.09 891.87S917.46 933.61 971.1 933.61S1031.67 929.7 1090.11 929.7S1150.57 947.24 1209.13 947.24S1271.44 910.68 1328.14 910.68S1393.81 894.05 1447.15 894.05S1513.75 936.21 1566.16 936.21S1631.27 933.24 1685.17 933.24S1746.02 862.51 1804.18 862.51S1865.94 898.49 1923.19 898.49S1990.14 871.66 2042.21 871.66S2102.43 897.85 2161.22 897.85S2221.8 890.88 2280.23 890.88S2341.93 917.02 2399.24 917.02S2465.01 866.21 2518.25 866.21S2578.34 937.09 2637.26 937.09S2704.87 877.17 2756.28 877.17L2669 1300 L-100 1300 Z;M-100 866.61C-38.88 882.69 -40.26 921.99 19.01 921.99S84.64 898.52 138.02 898.52S198.42 898.17 257.03 898.17S324.6 884.57 376.05 884.57S444.01 884.34 495.06 884.34S560.09 923.5 614.07 923.5S679.01 900.52 733.08 900.52S792.9 879.99 852.09 879.99S918.33 872.5 971.1 872.5S1034.37 878 1090.11 878S1155.85 914.39 1209.13 914.39S1270.38 895.32 1328.14 895.32S1388.07 930.91 1447.15 930.91S1508.92 902.92 1566.16 902.92S1625.78 906.72 1685.17 906.72S1750 859.54 1804.18 859.54S1871.09 902.24 1923.19 902.24S1991.16 898.8 2042.21 898.8S2108.81 896.56 2161.22 896.56S2224.46 902.47 2280.23 902.47S2343.53 889.96 2399.24 889.96S2463.6 864.58 2518.25 864.58S2581.55 896.82 2637.26 896.82S2697.05 929.52 2756.28 929.52L2669 1300 L-100 1300 Z;M-100 871.82C-35.94 929.19 -36.31 935.51 19.01 935.51S85.89 924.96 138.02 924.96S200.3 940.14 257.03 940.14S318.61 919.99 376.05 919.99S442.96 905.34 495.06 905.34S555.64 922.64 614.07 922.64S680.41 895.15 733.08 895.15S793.23 891.87 852.09 891.87S917.46 933.61 971.1 933.61S1031.67 929.7 1090.11 929.7S1150.57 947.24 1209.13 947.24S1271.44 910.68 1328.14 910.68S1393.81 894.05 1447.15 894.05S1513.75 936.21 1566.16 936.21S1631.27 933.24 1685.17 933.24S1746.02 862.51 1804.18 862.51S1865.94 898.49 1923.19 898.49S1990.14 871.66 2042.21 871.66S2102.43 897.85 2161.22 897.85S2221.8 890.88 2280.23 890.88S2341.93 917.02 2399.24 917.02S2465.01 866.21 2518.25 866.21S2578.34 937.09 2637.26 937.09S2704.87 877.17 2756.28 877.17L2669 1300 L-100 1300 Z"></animate>
  <animateTransform attributeName="transform" type="translate" dur="30.555555555555557s" begin="-8.148148148148149s" repeatCount="indefinite" values="0;10;0" calcMode="spline" keySplines="0.3 0 0.7 1;0.3 0 0.7 1"></animateTransform>
</path><path d="M-100 899.34C-35.21 915.16 -38.99 892.77 21.27 892.77S90.41 956.86 142.54 956.86S210.64 909.22 263.81 909.22S332.7 919.35 385.08 919.35S450.83 950.35 506.35 950.35S574.57 947.27 627.62 947.27S693.89 944.12 748.89 944.12S818.13 917.73 870.16 917.73S937.78 926.43 991.43 926.43S1055.33 885.81 1112.7 885.81S1174.33 917.97 1233.97 917.97S1299.12 888.37 1355.24 888.37S1419.19 958.44 1476.51 958.44S1543.35 930.19 1597.78 930.19S1659.37 965.81 1719.05 965.81S1783.3 890.47 1840.32 890.47S1902.7 974.9 1961.59 974.9S2024.58 926.53 2082.86 926.53S2143.91 919.12 2204.13 919.12S2273.12 925.11 2325.4 925.11S2387.84 936.18 2446.67 936.18S2508.93 973.51 2567.94 973.51S2631.52 934.98 2689.21 934.98L2669 1300 L-100 1300 Z" fill="#462c6a" stroke-width="0">
  <animate attributeName="d" dur="27.77777777777778s" repeatCount="indefinite" values="M-100 899.34C-35.21 915.16 -38.99 892.77 21.27 892.77S90.41 956.86 142.54 956.86S210.64 909.22 263.81 909.22S332.7 919.35 385.08 919.35S450.83 950.35 506.35 950.35S574.57 947.27 627.62 947.27S693.89 944.12 748.89 944.12S818.13 917.73 870.16 917.73S937.78 926.43 991.43 926.43S1055.33 885.81 1112.7 885.81S1174.33 917.97 1233.97 917.97S1299.12 888.37 1355.24 888.37S1419.19 958.44 1476.51 958.44S1543.35 930.19 1597.78 930.19S1659.37 965.81 1719.05 965.81S1783.3 890.47 1840.32 890.47S1902.7 974.9 1961.59 974.9S2024.58 926.53 2082.86 926.53S2143.91 919.12 2204.13 919.12S2273.12 925.11 2325.4 925.11S2387.84 936.18 2446.67 936.18S2508.93 973.51 2567.94 973.51S2631.52 934.98 2689.21 934.98L2669 1300 L-100 1300 Z;M-100 942.35C-32.61 912.62 -38.01 940.01 21.27 940.01S86.65 960.95 142.54 960.95S207.03 928.65 263.81 928.65S326.01 891.91 385.08 891.91S454.27 952.91 506.35 952.91S571.46 893.84 627.62 893.84S693.64 896.6 748.89 896.6S810.94 938.07 870.16 938.07S936.49 911.18 991.43 911.18S1057.42 914.1 1112.7 914.1S1179.7 926.72 1233.97 926.72S1297.83 907.48 1355.24 907.48S1423.48 939.49 1476.51 939.49S1544.67 921.19 1597.78 921.19S1665.91 966.27 1719.05 966.27S1785.6 931.06 1840.32 931.06S1901.45 954.75 1961.59 954.75S2027.32 934.3 2082.86 934.3S2148.17 929.19 2204.13 929.19S2272.37 904.23 2325.4 904.23S2393.96 940.8 2446.67 940.8S2512.78 948.67 2567.94 948.67S2628.79 951.22 2689.21 951.22L2669 1300 L-100 1300 Z;M-100 899.34C-35.21 915.16 -38.99 892.77 21.27 892.77S90.41 956.86 142.54 956.86S210.64 909.22 263.81 909.22S332.7 919.35 385.08 919.35S450.83 950.35 506.35 950.35S574.57 947.27 627.62 947.27S693.89 944.12 748.89 944.12S818.13 917.73 870.16 917.73S937.78 926.43 991.43 926.43S1055.33 885.81 1112.7 885.81S1174.33 917.97 1233.97 917.97S1299.12 888.37 1355.24 888.37S1419.19 958.44 1476.51 958.44S1543.35 930.19 1597.78 930.19S1659.37 965.81 1719.05 965.81S1783.3 890.47 1840.32 890.47S1902.7 974.9 1961.59 974.9S2024.58 926.53 2082.86 926.53S2143.91 919.12 2204.13 919.12S2273.12 925.11 2325.4 925.11S2387.84 936.18 2446.67 936.18S2508.93 973.51 2567.94 973.51S2631.52 934.98 2689.21 934.98L2669 1300 L-100 1300 Z"></animate>
  <animateTransform attributeName="transform" type="translate" dur="27.77777777777778s" begin="-9.25925925925926s" repeatCount="indefinite" values="0;10;0" calcMode="spline" keySplines="0.3 0 0.7 1;0.3 0 0.7 1"></animateTransform>
</path><path d="M-100 983.81C-33.9 948.25 -32.79 972.88 23.62 972.88S93.41 969.47 147.23 969.47S213.81 987.12 270.85 987.12S339.85 993.91 394.46 993.91S461.72 971.09 518.08 971.09S584.28 1007.04 641.7 1007.04S710.63 957.49 765.31 957.49S833.68 970.27 888.93 970.27S957.74 961.39 1012.54 961.39S1075.74 941.73 1136.16 941.73S1204.25 924.75 1259.78 924.75S1323.15 968.94 1383.39 968.94S1448.25 951.78 1507.01 951.78S1576.1 955.5 1630.62 955.5S1700.26 933.24 1754.24 933.24S1821.93 936.79 1877.86 936.79S1941.17 936.39 2001.47 936.39S2065.64 943.75 2125.09 943.75S2190.59 995.06 2248.71 995.06S2317.93 980.37 2372.32 980.37S2440.94 951.02 2495.94 951.02S2564.13 995.03 2619.55 995.03S2681.54 930.01 2743.17 930.01L2669 1300 L-100 1300 Z" fill="#4e2b6a" stroke-width="0">
  <animate attributeName="d" dur="25s" repeatCount="indefinite" values="M-100 983.81C-33.9 948.25 -32.79 972.88 23.62 972.88S93.41 969.47 147.23 969.47S213.81 987.12 270.85 987.12S339.85 993.91 394.46 993.91S461.72 971.09 518.08 971.09S584.28 1007.04 641.7 1007.04S710.63 957.49 765.31 957.49S833.68 970.27 888.93 970.27S957.74 961.39 1012.54 961.39S1075.74 941.73 1136.16 941.73S1204.25 924.75 1259.78 924.75S1323.15 968.94 1383.39 968.94S1448.25 951.78 1507.01 951.78S1576.1 955.5 1630.62 955.5S1700.26 933.24 1754.24 933.24S1821.93 936.79 1877.86 936.79S1941.17 936.39 2001.47 936.39S2065.64 943.75 2125.09 943.75S2190.59 995.06 2248.71 995.06S2317.93 980.37 2372.32 980.37S2440.94 951.02 2495.94 951.02S2564.13 995.03 2619.55 995.03S2681.54 930.01 2743.17 930.01L2669 1300 L-100 1300 Z;M-100 969.74C-34.49 949.54 -32.16 995.22 23.62 995.22S89.73 917.49 147.23 917.49S214.35 933.08 270.85 933.08S335.17 1013.83 394.46 1013.83S464.22 983.39 518.08 983.39S582.2 964.41 641.7 964.41S708.22 975.12 765.31 975.12S828.34 989.78 888.93 989.78S951.81 925.23 1012.54 925.23S1075.9 945.09 1136.16 945.09S1204.27 936.81 1259.78 936.81S1326.95 959.82 1383.39 959.82S1453.24 1016 1507.01 1016S1571.33 947.73 1630.62 947.73S1698.67 1004.66 1754.24 1004.66S1820.92 951.33 1877.86 951.33S1946.17 944.47 2001.47 944.47S2069.7 940.89 2125.09 940.89S2187.4 958.3 2248.71 958.3S2310.6 946.13 2372.32 946.13S2435.77 999.12 2495.94 999.12S2562.56 910.84 2619.55 910.84S2688.19 993.51 2743.17 993.51L2669 1300 L-100 1300 Z;M-100 983.81C-33.9 948.25 -32.79 972.88 23.62 972.88S93.41 969.47 147.23 969.47S213.81 987.12 270.85 987.12S339.85 993.91 394.46 993.91S461.72 971.09 518.08 971.09S584.28 1007.04 641.7 1007.04S710.63 957.49 765.31 957.49S833.68 970.27 888.93 970.27S957.74 961.39 1012.54 961.39S1075.74 941.73 1136.16 941.73S1204.25 924.75 1259.78 924.75S1323.15 968.94 1383.39 968.94S1448.25 951.78 1507.01 951.78S1576.1 955.5 1630.62 955.5S1700.26 933.24 1754.24 933.24S1821.93 936.79 1877.86 936.79S1941.17 936.39 2001.47 936.39S2065.64 943.75 2125.09 943.75S2190.59 995.06 2248.71 995.06S2317.93 980.37 2372.32 980.37S2440.94 951.02 2495.94 951.02S2564.13 995.03 2619.55 995.03S2681.54 930.01 2743.17 930.01L2669 1300 L-100 1300 Z"></animate>
  <animateTransform attributeName="transform" type="translate" dur="25s" begin="-10s" repeatCount="indefinite" values="0;10;0" calcMode="spline" keySplines="0.3 0 0.7 1;0.3 0 0.7 1"></animateTransform>
</path><path d="M-100 969.48C-28.51 1020.66 -35.72 999.97 26.05 999.97S94.25 1029.87 152.11 1029.87S222.46 990.93 278.16 990.93S348.69 936.32 404.22 936.32S470.55 968.48 530.27 968.48S599.56 974.91 656.33 974.91S723.28 948.65 782.38 948.65S848.8 1005.45 908.44 1005.45S971.9 1027.45 1034.49 1027.45S1105.82 1022.34 1160.55 1022.34S1230.49 1007.37 1286.6 1007.37S1354.64 1006.62 1412.66 1006.62S1475.84 1011.6 1538.71 1011.6S1602.38 986.54 1664.76 986.54S1734.65 1007.29 1790.82 1007.29S1857.38 950.45 1916.87 950.45S1988.41 973.38 2042.93 973.38S2106.15 979.64 2168.98 979.64S2238.55 1006.52 2295.04 1006.52S2364.42 1016.21 2421.09 1016.21S2484.29 1007.22 2547.15 1007.22S2612.18 1008.79 2673.2 1008.79L2669 1300 L-100 1300 Z" fill="#572869" stroke-width="0">
  <animate attributeName="d" dur="22.22222222222222s" repeatCount="indefinite" values="M-100 969.48C-28.51 1020.66 -35.72 999.97 26.05 999.97S94.25 1029.87 152.11 1029.87S222.46 990.93 278.16 990.93S348.69 936.32 404.22 936.32S470.55 968.48 530.27 968.48S599.56 974.91 656.33 974.91S723.28 948.65 782.38 948.65S848.8 1005.45 908.44 1005.45S971.9 1027.45 1034.49 1027.45S1105.82 1022.34 1160.55 1022.34S1230.49 1007.37 1286.6 1007.37S1354.64 1006.62 1412.66 1006.62S1475.84 1011.6 1538.71 1011.6S1602.38 986.54 1664.76 986.54S1734.65 1007.29 1790.82 1007.29S1857.38 950.45 1916.87 950.45S1988.41 973.38 2042.93 973.38S2106.15 979.64 2168.98 979.64S2238.55 1006.52 2295.04 1006.52S2364.42 1016.21 2421.09 1016.21S2484.29 1007.22 2547.15 1007.22S2612.18 1008.79 2673.2 1008.79L2669 1300 L-100 1300 Z;M-100 985.43C-34.76 956.04 -34.13 995.22 26.05 995.22S92.35 1009.56 152.11 1009.56S220.75 993.03 278.16 993.03S345.3 1014.79 404.22 1014.79S470.95 996.27 530.27 996.27S596.85 970.45 656.33 970.45S726.03 990.6 782.38 990.6S848.93 1013.55 908.44 1013.55S978.39 998.18 1034.49 998.18S1102.04 1008.82 1160.55 1008.82S1229.59 938.8 1286.6 938.8S1355.22 983.58 1412.66 983.58S1483.92 1010.57 1538.71 1010.57S1609.99 976.25 1664.76 976.25S1732.93 1022.73 1790.82 1022.73S1854.68 962.49 1916.87 962.49S1980.22 956.69 2042.93 956.69S2110.75 950.72 2168.98 950.72S2240.39 1014.04 2295.04 1014.04S2359.58 1020.81 2421.09 1020.81S2486.99 972.2 2547.15 972.2S2612.85 1019.31 2673.2 1019.31L2669 1300 L-100 1300 Z;M-100 969.48C-28.51 1020.66 -35.72 999.97 26.05 999.97S94.25 1029.87 152.11 1029.87S222.46 990.93 278.16 990.93S348.69 936.32 404.22 936.32S470.55 968.48 530.27 968.48S599.56 974.91 656.33 974.91S723.28 948.65 782.38 948.65S848.8 1005.45 908.44 1005.45S971.9 1027.45 1034.49 1027.45S1105.82 1022.34 1160.55 1022.34S1230.49 1007.37 1286.6 1007.37S1354.64 1006.62 1412.66 1006.62S1475.84 1011.6 1538.71 1011.6S1602.38 986.54 1664.76 986.54S1734.65 1007.29 1790.82 1007.29S1857.38 950.45 1916.87 950.45S1988.41 973.38 2042.93 973.38S2106.15 979.64 2168.98 979.64S2238.55 1006.52 2295.04 1006.52S2364.42 1016.21 2421.09 1016.21S2484.29 1007.22 2547.15 1007.22S2612.18 1008.79 2673.2 1008.79L2669 1300 L-100 1300 Z"></animate>
  <animateTransform attributeName="transform" type="translate" dur="22.22222222222222s" begin="-10.37037037037037s" repeatCount="indefinite" values="0;10;0" calcMode="spline" keySplines="0.3 0 0.7 1;0.3 0 0.7 1"></animateTransform>
</path><path d="M-100 1027.57C-28.05 969.65 -33.84 1048.54 28.59 1048.54S97.08 1032.53 157.18 1032.53S222.68 1035.18 285.77 1035.18S357.27 1042.9 414.37 1042.9S480.4 990.63 542.96 990.63S613.15 1000.68 671.55 1000.68S739.72 1039.59 800.14 1039.59S872.24 973.77 928.73 973.77S995.98 1041.43 1057.32 1041.43S1127.32 1062.87 1185.91 1062.87S1258.26 1017.21 1314.5 1017.21S1379.32 1018.89 1443.1 1018.89S1511.98 987.05 1571.69 987.05S1641.28 996.59 1700.28 996.59S1772.93 1059.56 1828.87 1059.56S1897.05 1042.64 1957.46 1042.64S2030.04 997 2086.05 997S2153.05 1018.32 2214.64 1018.32S2286.15 1056.16 2343.24 1056.16S2415.35 1034.55 2471.83 1034.55S2539.04 1011.93 2600.42 1011.93S2667.53 1006.93 2729.01 1006.93L2669 1300 L-100 1300 Z" fill="#5f2668" stroke-width="0">
  <animate attributeName="d" dur="19.444444444444446s" repeatCount="indefinite" values="M-100 1027.57C-28.05 969.65 -33.84 1048.54 28.59 1048.54S97.08 1032.53 157.18 1032.53S222.68 1035.18 285.77 1035.18S357.27 1042.9 414.37 1042.9S480.4 990.63 542.96 990.63S613.15 1000.68 671.55 1000.68S739.72 1039.59 800.14 1039.59S872.24 973.77 928.73 973.77S995.98 1041.43 1057.32 1041.43S1127.32 1062.87 1185.91 1062.87S1258.26 1017.21 1314.5 1017.21S1379.32 1018.89 1443.1 1018.89S1511.98 987.05 1571.69 987.05S1641.28 996.59 1700.28 996.59S1772.93 1059.56 1828.87 1059.56S1897.05 1042.64 1957.46 1042.64S2030.04 997 2086.05 997S2153.05 1018.32 2214.64 1018.32S2286.15 1056.16 2343.24 1056.16S2415.35 1034.55 2471.83 1034.55S2539.04 1011.93 2600.42 1011.93S2667.53 1006.93 2729.01 1006.93L2669 1300 L-100 1300 Z;M-100 993.84C-29.53 1041.26 -34.22 984.25 28.59 984.25S93.66 988.03 157.18 988.03S221.85 986.21 285.77 986.21S358.54 1047.61 414.37 1047.61S485.17 1024.63 542.96 1024.63S609.49 1013.7 671.55 1013.7S739.98 1072.05 800.14 1072.05S870.78 1040.47 928.73 1040.47S997.76 1071.82 1057.32 1071.82S1123.33 982.11 1185.91 982.11S1258.46 1035.93 1314.5 1035.93S1380.22 988.38 1443.1 988.38S1515.81 1010.24 1571.69 1010.24S1643.32 1045.17 1700.28 1045.17S1769.09 986.55 1828.87 986.55S1894.95 995.25 1957.46 995.25S2024.34 1023.39 2086.05 1023.39S2152.34 1029.08 2214.64 1029.08S2284.86 1000.98 2343.24 1000.98S2411.36 964.1 2471.83 964.1S2539.96 1006.31 2600.42 1006.31S2665.31 1047.84 2729.01 1047.84L2669 1300 L-100 1300 Z;M-100 1027.57C-28.05 969.65 -33.84 1048.54 28.59 1048.54S97.08 1032.53 157.18 1032.53S222.68 1035.18 285.77 1035.18S357.27 1042.9 414.37 1042.9S480.4 990.63 542.96 990.63S613.15 1000.68 671.55 1000.68S739.72 1039.59 800.14 1039.59S872.24 973.77 928.73 973.77S995.98 1041.43 1057.32 1041.43S1127.32 1062.87 1185.91 1062.87S1258.26 1017.21 1314.5 1017.21S1379.32 1018.89 1443.1 1018.89S1511.98 987.05 1571.69 987.05S1641.28 996.59 1700.28 996.59S1772.93 1059.56 1828.87 1059.56S1897.05 1042.64 1957.46 1042.64S2030.04 997 2086.05 997S2153.05 1018.32 2214.64 1018.32S2286.15 1056.16 2343.24 1056.16S2415.35 1034.55 2471.83 1034.55S2539.04 1011.93 2600.42 1011.93S2667.53 1006.93 2729.01 1006.93L2669 1300 L-100 1300 Z"></animate>
  <animateTransform attributeName="transform" type="translate" dur="19.444444444444446s" begin="-10.370370370370372s" repeatCount="indefinite" values="0;10;0" calcMode="spline" keySplines="0.3 0 0.7 1;0.3 0 0.7 1"></animateTransform>
</path><path d="M-100 1100.78C-30.27 1052.79 -29.07 1010.2 31.23 1010.2S102.07 1039.71 162.46 1039.71S229.54 1040.9 293.7 1040.9S364.34 1008.95 424.93 1008.95S494.16 1080.7 556.16 1080.7S628.42 1035.56 687.39 1035.56S759.73 1102.33 818.63 1102.33S885.19 1033.51 949.86 1033.51S1016.54 1031.38 1081.09 1031.38S1151.54 1063.1 1212.32 1063.1S1282.49 1033.78 1343.55 1033.78S1415.69 1019.96 1474.79 1019.96S1548.82 1017.17 1606.02 1017.17S1677.62 1050.89 1737.25 1050.89S1805 1054.97 1868.48 1054.97S1935.76 1010.94 1999.72 1010.94S2072.12 1069.53 2130.95 1069.53S2204.31 1075.94 2262.18 1075.94S2328.91 1077.95 2393.41 1077.95S2465.36 1061.78 2524.64 1061.78S2594.78 1039.97 2655.88 1039.97S2730.01 1000.26 2787.11 1000.26L2669 1300 L-100 1300 Z" fill="#662366" stroke-width="0">
  <animate attributeName="d" dur="16.666666666666668s" repeatCount="indefinite" values="M-100 1100.78C-30.27 1052.79 -29.07 1010.2 31.23 1010.2S102.07 1039.71 162.46 1039.71S229.54 1040.9 293.7 1040.9S364.34 1008.95 424.93 1008.95S494.16 1080.7 556.16 1080.7S628.42 1035.56 687.39 1035.56S759.73 1102.33 818.63 1102.33S885.19 1033.51 949.86 1033.51S1016.54 1031.38 1081.09 1031.38S1151.54 1063.1 1212.32 1063.1S1282.49 1033.78 1343.55 1033.78S1415.69 1019.96 1474.79 1019.96S1548.82 1017.17 1606.02 1017.17S1677.62 1050.89 1737.25 1050.89S1805 1054.97 1868.48 1054.97S1935.76 1010.94 1999.72 1010.94S2072.12 1069.53 2130.95 1069.53S2204.31 1075.94 2262.18 1075.94S2328.91 1077.95 2393.41 1077.95S2465.36 1061.78 2524.64 1061.78S2594.78 1039.97 2655.88 1039.97S2730.01 1000.26 2787.11 1000.26L2669 1300 L-100 1300 Z;M-100 1065.32C-29.33 1097.03 -26.69 1011.27 31.23 1011.27S98.55 1049.12 162.46 1049.12S231.22 1093.12 293.7 1093.12S359.54 1054.33 424.93 1054.33S491.64 1071.77 556.16 1071.77S621.96 1060.65 687.39 1060.65S753.08 1026.5 818.63 1026.5S892.25 1057.28 949.86 1057.28S1021.05 1038.67 1081.09 1038.67S1151.26 1091.76 1212.32 1091.76S1281.74 1024.21 1343.55 1024.21S1409.72 992.4 1474.79 992.4S1547.54 1012.79 1606.02 1012.79S1673.6 1099.58 1737.25 1099.58S1805.58 1100.1 1868.48 1100.1S1938.77 1026.36 1999.72 1026.36S2068.82 1064.58 2130.95 1064.58S2200.21 1101.33 2262.18 1101.33S2334.87 1056.37 2393.41 1056.37S2459.5 1042.73 2524.64 1042.73S2598.13 1046.27 2655.88 1046.27S2725.75 1040.87 2787.11 1040.87L2669 1300 L-100 1300 Z;M-100 1100.78C-30.27 1052.79 -29.07 1010.2 31.23 1010.2S102.07 1039.71 162.46 1039.71S229.54 1040.9 293.7 1040.9S364.34 1008.95 424.93 1008.95S494.16 1080.7 556.16 1080.7S628.42 1035.56 687.39 1035.56S759.73 1102.33 818.63 1102.33S885.19 1033.51 949.86 1033.51S1016.54 1031.38 1081.09 1031.38S1151.54 1063.1 1212.32 1063.1S1282.49 1033.78 1343.55 1033.78S1415.69 1019.96 1474.79 1019.96S1548.82 1017.17 1606.02 1017.17S1677.62 1050.89 1737.25 1050.89S1805 1054.97 1868.48 1054.97S1935.76 1010.94 1999.72 1010.94S2072.12 1069.53 2130.95 1069.53S2204.31 1075.94 2262.18 1075.94S2328.91 1077.95 2393.41 1077.95S2465.36 1061.78 2524.64 1061.78S2594.78 1039.97 2655.88 1039.97S2730.01 1000.26 2787.11 1000.26L2669 1300 L-100 1300 Z"></animate>
  <animateTransform attributeName="transform" type="translate" dur="16.666666666666668s" begin="-10s" repeatCount="indefinite" values="0;10;0" calcMode="spline" keySplines="0.3 0 0.7 1;0.3 0 0.7 1"></animateTransform>
</path><path d="M-100 1025.72C-24.72 1037.4 -26.36 1023.27 33.98 1023.27S108.41 1019.07 167.97 1019.07S242.4 1113.07 301.95 1113.07S370.2 1058.75 435.94 1058.75S506.84 1112.2 569.92 1112.2S644.81 1080.69 703.9 1080.69S776.69 1083.08 837.89 1083.08S907.77 1054.41 971.87 1054.41S1043.49 1131 1105.85 1131S1180.1 1068.74 1239.84 1068.74S1313.78 1050.16 1373.82 1050.16S1445.17 1129.35 1507.81 1129.35S1578.25 1038.37 1641.79 1038.37S1714.85 1054.02 1775.77 1054.02S1847.26 1054.66 1909.76 1054.66S1985.17 1037.4 2043.74 1037.4S2111.49 1048.17 2177.73 1048.17S2252.18 1131.47 2311.71 1131.47S2382.76 1066.08 2445.69 1066.08S2516.37 1081.89 2579.68 1081.89S2653.22 1040.52 2713.66 1040.52L2669 1300 L-100 1300 Z" fill="#6e2063" stroke-width="0">
  <animate attributeName="d" dur="13.88888888888889s" repeatCount="indefinite" values="M-100 1025.72C-24.72 1037.4 -26.36 1023.27 33.98 1023.27S108.41 1019.07 167.97 1019.07S242.4 1113.07 301.95 1113.07S370.2 1058.75 435.94 1058.75S506.84 1112.2 569.92 1112.2S644.81 1080.69 703.9 1080.69S776.69 1083.08 837.89 1083.08S907.77 1054.41 971.87 1054.41S1043.49 1131 1105.85 1131S1180.1 1068.74 1239.84 1068.74S1313.78 1050.16 1373.82 1050.16S1445.17 1129.35 1507.81 1129.35S1578.25 1038.37 1641.79 1038.37S1714.85 1054.02 1775.77 1054.02S1847.26 1054.66 1909.76 1054.66S1985.17 1037.4 2043.74 1037.4S2111.49 1048.17 2177.73 1048.17S2252.18 1131.47 2311.71 1131.47S2382.76 1066.08 2445.69 1066.08S2516.37 1081.89 2579.68 1081.89S2653.22 1040.52 2713.66 1040.52L2669 1300 L-100 1300 Z;M-100 1046.82C-24.44 1079.57 -27.6 1029.8 33.98 1029.8S107.44 1032.39 167.97 1032.39S238.79 1095.5 301.95 1095.5S373.1 1083.8 435.94 1083.8S509.28 1127.89 569.92 1127.89S644.98 1034.37 703.9 1034.37S777.84 1127.77 837.89 1127.77S911.08 1050.37 971.87 1050.37S1040.66 1098.5 1105.85 1098.5S1175.98 1097.02 1239.84 1097.02S1313.04 1036.02 1373.82 1036.02S1448.07 1052.5 1507.81 1052.5S1579.27 1095.08 1641.79 1095.08S1716.34 1086.25 1775.77 1086.25S1851.3 1077.41 1909.76 1077.41S1978.72 1052.06 2043.74 1052.06S2111.07 1023.25 2177.73 1023.25S2250.87 1036.53 2311.71 1036.53S2386.5 1094.09 2445.69 1094.09S2516.9 1080.79 2579.68 1080.79S2654.93 1059.29 2713.66 1059.29L2669 1300 L-100 1300 Z;M-100 1025.72C-24.72 1037.4 -26.36 1023.27 33.98 1023.27S108.41 1019.07 167.97 1019.07S242.4 1113.07 301.95 1113.07S370.2 1058.75 435.94 1058.75S506.84 1112.2 569.92 1112.2S644.81 1080.69 703.9 1080.69S776.69 1083.08 837.89 1083.08S907.77 1054.41 971.87 1054.41S1043.49 1131 1105.85 1131S1180.1 1068.74 1239.84 1068.74S1313.78 1050.16 1373.82 1050.16S1445.17 1129.35 1507.81 1129.35S1578.25 1038.37 1641.79 1038.37S1714.85 1054.02 1775.77 1054.02S1847.26 1054.66 1909.76 1054.66S1985.17 1037.4 2043.74 1037.4S2111.49 1048.17 2177.73 1048.17S2252.18 1131.47 2311.71 1131.47S2382.76 1066.08 2445.69 1066.08S2516.37 1081.89 2579.68 1081.89S2653.22 1040.52 2713.66 1040.52L2669 1300 L-100 1300 Z"></animate>
  <animateTransform attributeName="transform" type="translate" dur="13.88888888888889s" begin="-9.25925925925926s" repeatCount="indefinite" values="0;10;0" calcMode="spline" keySplines="0.3 0 0.7 1;0.3 0 0.7 1"></animateTransform>
</path><path d="M-100 1054.84C-29.4 1116.61 -26.69 1077.59 36.85 1077.59S105.34 1118.87 173.71 1118.87S244.04 1090.47 310.56 1090.47S387.48 1069.88 447.41 1069.88S521.59 1100.76 584.27 1100.76S656.53 1079.29 721.12 1079.29S795.6 1134.93 857.97 1134.93S927.49 1146.56 994.83 1146.56S1066.69 1044.29 1131.68 1044.29S1203.26 1076.44 1268.53 1076.44S1340.54 1093.24 1405.39 1093.24S1481.76 1119.56 1542.24 1119.56S1611.4 1061.3 1679.09 1061.3S1747.6 1118.86 1815.95 1118.86S1892.85 1085.15 1952.8 1085.15S2026.49 1156.04 2089.65 1156.04S2159.58 1150.87 2226.51 1150.87S2302.55 1092.51 2363.36 1092.51S2434.77 1069.19 2500.21 1069.19S2574.72 1107.64 2637.07 1107.64S2707.94 1146.97 2773.92 1146.97L2669 1300 L-100 1300 Z" fill="#751c60" stroke-width="0">
  <animate attributeName="d" dur="11.11111111111111s" repeatCount="indefinite" values="M-100 1054.84C-29.4 1116.61 -26.69 1077.59 36.85 1077.59S105.34 1118.87 173.71 1118.87S244.04 1090.47 310.56 1090.47S387.48 1069.88 447.41 1069.88S521.59 1100.76 584.27 1100.76S656.53 1079.29 721.12 1079.29S795.6 1134.93 857.97 1134.93S927.49 1146.56 994.83 1146.56S1066.69 1044.29 1131.68 1044.29S1203.26 1076.44 1268.53 1076.44S1340.54 1093.24 1405.39 1093.24S1481.76 1119.56 1542.24 1119.56S1611.4 1061.3 1679.09 1061.3S1747.6 1118.86 1815.95 1118.86S1892.85 1085.15 1952.8 1085.15S2026.49 1156.04 2089.65 1156.04S2159.58 1150.87 2226.51 1150.87S2302.55 1092.51 2363.36 1092.51S2434.77 1069.19 2500.21 1069.19S2574.72 1107.64 2637.07 1107.64S2707.94 1146.97 2773.92 1146.97L2669 1300 L-100 1300 Z;M-100 1124.86C-30.93 1139.58 -26.09 1103.13 36.85 1103.13S108.83 1093.03 173.71 1093.03S246.08 1052.5 310.56 1052.5S379.38 1082.1 447.41 1082.1S517.49 1090.79 584.27 1090.79S658.31 1062.42 721.12 1062.42S795.34 1093.2 857.97 1093.2S933.28 1150.83 994.83 1150.83S1070.01 1078.91 1131.68 1078.91S1202.29 1043.19 1268.53 1043.19S1344.38 1112.57 1405.39 1112.57S1476.36 1092.51 1542.24 1092.51S1619.19 1040.44 1679.09 1040.44S1750.56 1155.63 1815.95 1155.63S1888.73 1106.7 1952.8 1106.7S2021.31 1124.61 2089.65 1124.61S2165.3 1105.18 2226.51 1105.18S2299.01 1081.61 2363.36 1081.61S2431.82 1083.99 2500.21 1083.99S2571.77 1101.14 2637.07 1101.14S2711.12 1112.68 2773.92 1112.68L2669 1300 L-100 1300 Z;M-100 1054.84C-29.4 1116.61 -26.69 1077.59 36.85 1077.59S105.34 1118.87 173.71 1118.87S244.04 1090.47 310.56 1090.47S387.48 1069.88 447.41 1069.88S521.59 1100.76 584.27 1100.76S656.53 1079.29 721.12 1079.29S795.6 1134.93 857.97 1134.93S927.49 1146.56 994.83 1146.56S1066.69 1044.29 1131.68 1044.29S1203.26 1076.44 1268.53 1076.44S1340.54 1093.24 1405.39 1093.24S1481.76 1119.56 1542.24 1119.56S1611.4 1061.3 1679.09 1061.3S1747.6 1118.86 1815.95 1118.86S1892.85 1085.15 1952.8 1085.15S2026.49 1156.04 2089.65 1156.04S2159.58 1150.87 2226.51 1150.87S2302.55 1092.51 2363.36 1092.51S2434.77 1069.19 2500.21 1069.19S2574.72 1107.64 2637.07 1107.64S2707.94 1146.97 2773.92 1146.97L2669 1300 L-100 1300 Z"></animate>
  <animateTransform attributeName="transform" type="translate" dur="11.11111111111111s" begin="-8.148148148148147s" repeatCount="indefinite" values="0;10;0" calcMode="spline" keySplines="0.3 0 0.7 1;0.3 0 0.7 1"></animateTransform>
</path><path d="M-100 1143.59C-26.67 1119.49 -25.51 1134.1 39.85 1134.1S116.97 1075.06 179.7 1075.06S254.73 1172.37 319.55 1172.37S394.86 1113.07 459.39 1113.07S534.87 1090.24 599.24 1090.24S672.69 1086.32 739.09 1086.32S811.02 1174.95 878.94 1174.95S956.12 1109.05 1018.79 1109.05S1092.3 1133.41 1158.64 1133.41S1230.74 1117.49 1298.48 1117.49S1373.59 1134.67 1438.33 1134.67S1509.66 1135.22 1578.18 1135.22S1653.66 1170.62 1718.03 1170.62S1789.29 1134.62 1857.88 1134.62S1934.88 1172.12 1997.73 1172.12S2074.77 1143.77 2137.58 1143.77S2209.86 1151.39 2277.42 1151.39S2348.88 1186.89 2417.27 1186.89S2489.8 1136.63 2557.12 1136.63S2633.87 1143.52 2696.97 1143.52L2669 1300 L-100 1300 Z" fill="#7c195c" stroke-width="0">
  <animate attributeName="d" dur="8.333333333333334s" repeatCount="indefinite" values="M-100 1143.59C-26.67 1119.49 -25.51 1134.1 39.85 1134.1S116.97 1075.06 179.7 1075.06S254.73 1172.37 319.55 1172.37S394.86 1113.07 459.39 1113.07S534.87 1090.24 599.24 1090.24S672.69 1086.32 739.09 1086.32S811.02 1174.95 878.94 1174.95S956.12 1109.05 1018.79 1109.05S1092.3 1133.41 1158.64 1133.41S1230.74 1117.49 1298.48 1117.49S1373.59 1134.67 1438.33 1134.67S1509.66 1135.22 1578.18 1135.22S1653.66 1170.62 1718.03 1170.62S1789.29 1134.62 1857.88 1134.62S1934.88 1172.12 1997.73 1172.12S2074.77 1143.77 2137.58 1143.77S2209.86 1151.39 2277.42 1151.39S2348.88 1186.89 2417.27 1186.89S2489.8 1136.63 2557.12 1136.63S2633.87 1143.52 2696.97 1143.52L2669 1300 L-100 1300 Z;M-100 1132.04C-22.54 1144.43 -23.98 1134.08 39.85 1134.08S113.22 1107.56 179.7 1107.56S256.6 1143.48 319.55 1143.48S390.69 1138.31 459.39 1138.31S537.15 1122.49 599.24 1122.49S673.35 1066.83 739.09 1066.83S812.08 1120.33 878.94 1120.33S952.45 1148.32 1018.79 1148.32S1088.77 1151.15 1158.64 1151.15S1230.25 1102.97 1298.48 1102.97S1375.05 1124.7 1438.33 1124.7S1513.69 1114.73 1578.18 1114.73S1650.91 1106.68 1718.03 1106.68S1794.19 1111.55 1857.88 1111.55S1934.65 1173 1997.73 1173S2067.65 1127.21 2137.58 1127.21S2207.98 1134.77 2277.42 1134.77S2349.12 1125.13 2417.27 1125.13S2492.34 1120.43 2557.12 1120.43S2631.84 1144.22 2696.97 1144.22L2669 1300 L-100 1300 Z;M-100 1143.59C-26.67 1119.49 -25.51 1134.1 39.85 1134.1S116.97 1075.06 179.7 1075.06S254.73 1172.37 319.55 1172.37S394.86 1113.07 459.39 1113.07S534.87 1090.24 599.24 1090.24S672.69 1086.32 739.09 1086.32S811.02 1174.95 878.94 1174.95S956.12 1109.05 1018.79 1109.05S1092.3 1133.41 1158.64 1133.41S1230.74 1117.49 1298.48 1117.49S1373.59 1134.67 1438.33 1134.67S1509.66 1135.22 1578.18 1135.22S1653.66 1170.62 1718.03 1170.62S1789.29 1134.62 1857.88 1134.62S1934.88 1172.12 1997.73 1172.12S2074.77 1143.77 2137.58 1143.77S2209.86 1151.39 2277.42 1151.39S2348.88 1186.89 2417.27 1186.89S2489.8 1136.63 2557.12 1136.63S2633.87 1143.52 2696.97 1143.52L2669 1300 L-100 1300 Z"></animate>
  <animateTransform attributeName="transform" type="translate" dur="8.333333333333334s" begin="-6.666666666666667s" repeatCount="indefinite" values="0;10;0" calcMode="spline" keySplines="0.3 0 0.7 1;0.3 0 0.7 1"></animateTransform>
</path><path d="M-100 1168.07C-20.03 1127.09 -20.07 1112.12 42.98 1112.12S119.39 1171.39 185.96 1171.39S263.09 1133.83 328.93 1133.83S402.96 1138.04 471.91 1138.04S547 1104.9 614.89 1104.9S688.83 1141.49 757.87 1141.49S835.33 1177.05 900.84 1177.05S973.92 1143.64 1043.82 1143.64S1120.05 1144.28 1186.8 1144.28S1263.73 1164.33 1329.78 1164.33S1402.78 1195.11 1472.75 1195.11S1545.02 1144.55 1615.73 1144.55S1692.8 1136.54 1758.71 1136.54S1832.84 1176.98 1901.69 1176.98S1980.54 1166.11 2044.66 1166.11S2123.87 1138.49 2187.64 1138.49S2261.71 1094.29 2330.62 1094.29S2404.33 1189.26 2473.6 1189.26S2545.7 1137.83 2616.57 1137.83S2694.54 1192.17 2759.55 1192.17L2669 1300 L-100 1300 Z" fill="#821558" stroke-width="0">
  <animate attributeName="d" dur="5.555555555555555s" repeatCount="indefinite" values="M-100 1168.07C-20.03 1127.09 -20.07 1112.12 42.98 1112.12S119.39 1171.39 185.96 1171.39S263.09 1133.83 328.93 1133.83S402.96 1138.04 471.91 1138.04S547 1104.9 614.89 1104.9S688.83 1141.49 757.87 1141.49S835.33 1177.05 900.84 1177.05S973.92 1143.64 1043.82 1143.64S1120.05 1144.28 1186.8 1144.28S1263.73 1164.33 1329.78 1164.33S1402.78 1195.11 1472.75 1195.11S1545.02 1144.55 1615.73 1144.55S1692.8 1136.54 1758.71 1136.54S1832.84 1176.98 1901.69 1176.98S1980.54 1166.11 2044.66 1166.11S2123.87 1138.49 2187.64 1138.49S2261.71 1094.29 2330.62 1094.29S2404.33 1189.26 2473.6 1189.26S2545.7 1137.83 2616.57 1137.83S2694.54 1192.17 2759.55 1192.17L2669 1300 L-100 1300 Z;M-100 1211.84C-26.19 1187.26 -20.32 1165.41 42.98 1165.41S120.18 1155.76 185.96 1155.76S258.93 1176.86 328.93 1176.86S405.1 1152.11 471.91 1152.11S548.02 1215.35 614.89 1215.35S687.37 1170.68 757.87 1170.68S830.21 1218.25 900.84 1218.25S980.58 1171.65 1043.82 1171.65S1121.5 1141.95 1186.8 1141.95S1260.57 1192.89 1329.78 1192.89S1403.29 1153.6 1472.75 1153.6S1544.87 1174.42 1615.73 1174.42S1694.05 1146.19 1758.71 1146.19S1835.73 1179.68 1901.69 1179.68S1975.36 1155.94 2044.66 1155.94S2121.24 1141.99 2187.64 1141.99S2259.88 1207.98 2330.62 1207.98S2407.95 1148.75 2473.6 1148.75S2548.77 1181.96 2616.57 1181.96S2691.68 1133.94 2759.55 1133.94L2669 1300 L-100 1300 Z;M-100 1168.07C-20.03 1127.09 -20.07 1112.12 42.98 1112.12S119.39 1171.39 185.96 1171.39S263.09 1133.83 328.93 1133.83S402.96 1138.04 471.91 1138.04S547 1104.9 614.89 1104.9S688.83 1141.49 757.87 1141.49S835.33 1177.05 900.84 1177.05S973.92 1143.64 1043.82 1143.64S1120.05 1144.28 1186.8 1144.28S1263.73 1164.33 1329.78 1164.33S1402.78 1195.11 1472.75 1195.11S1545.02 1144.55 1615.73 1144.55S1692.8 1136.54 1758.71 1136.54S1832.84 1176.98 1901.69 1176.98S1980.54 1166.11 2044.66 1166.11S2123.87 1138.49 2187.64 1138.49S2261.71 1094.29 2330.62 1094.29S2404.33 1189.26 2473.6 1189.26S2545.7 1137.83 2616.57 1137.83S2694.54 1192.17 2759.55 1192.17L2669 1300 L-100 1300 Z"></animate>
  <animateTransform attributeName="transform" type="translate" dur="5.555555555555555s" begin="-4.814814814814814s" repeatCount="indefinite" values="0;10;0" calcMode="spline" keySplines="0.3 0 0.7 1;0.3 0 0.7 1"></animateTransform>
</path><path d="M-100 1144.03C-23.48 1168.26 -18.86 1218.06 46.25 1218.06S124.07 1160.39 192.5 1160.39S272.71 1168.49 338.75 1168.49S420.4 1194.99 485 1194.99S561.22 1239.32 631.25 1239.32S708.78 1160.69 777.5 1160.69S858.61 1128.09 923.75 1128.09S1005.51 1124.09 1070 1124.09S1146.93 1205.83 1216.25 1205.83S1297.04 1222.95 1362.5 1222.95S1441.37 1202.19 1508.75 1202.19S1589.55 1124.67 1655 1124.67S1728.13 1249.57 1801.25 1249.57S1880.73 1184.46 1947.5 1184.46S2025.01 1133.29 2093.75 1133.29S2169.55 1149.46 2240 1149.46S2314.16 1131.84 2386.25 1131.84S2462.21 1206.83 2532.5 1206.83S2608 1185.37 2678.75 1185.37L2669 1300 L-100 1300 Z" fill="#881153" stroke-width="0">
  <animate attributeName="d" dur="2.7777777777777777s" repeatCount="indefinite" values="M-100 1144.03C-23.48 1168.26 -18.86 1218.06 46.25 1218.06S124.07 1160.39 192.5 1160.39S272.71 1168.49 338.75 1168.49S420.4 1194.99 485 1194.99S561.22 1239.32 631.25 1239.32S708.78 1160.69 777.5 1160.69S858.61 1128.09 923.75 1128.09S1005.51 1124.09 1070 1124.09S1146.93 1205.83 1216.25 1205.83S1297.04 1222.95 1362.5 1222.95S1441.37 1202.19 1508.75 1202.19S1589.55 1124.67 1655 1124.67S1728.13 1249.57 1801.25 1249.57S1880.73 1184.46 1947.5 1184.46S2025.01 1133.29 2093.75 1133.29S2169.55 1149.46 2240 1149.46S2314.16 1131.84 2386.25 1131.84S2462.21 1206.83 2532.5 1206.83S2608 1185.37 2678.75 1185.37L2669 1300 L-100 1300 Z;M-100 1141.19C-19.76 1181.65 -19.4 1177.28 46.25 1177.28S127.5 1234.77 192.5 1234.77S270.17 1199.93 338.75 1199.93S418.33 1135.75 485 1135.75S566.45 1121.1 631.25 1121.1S706.97 1180.71 777.5 1180.71S855.09 1220.07 923.75 1220.07S1001.77 1194.74 1070 1194.74S1144.26 1136.86 1216.25 1136.86S1292.99 1239.28 1362.5 1239.28S1436.42 1211.99 1508.75 1211.99S1585.89 1235.83 1655 1235.83S1730.42 1197.29 1801.25 1197.29S1879.99 1141.73 1947.5 1141.73S2026.54 1195.66 2093.75 1195.66S2170.25 1197.91 2240 1197.91S2313.64 1199.63 2386.25 1199.63S2465.46 1140.02 2532.5 1140.02S2610.2 1179.22 2678.75 1179.22L2669 1300 L-100 1300 Z;M-100 1144.03C-23.48 1168.26 -18.86 1218.06 46.25 1218.06S124.07 1160.39 192.5 1160.39S272.71 1168.49 338.75 1168.49S420.4 1194.99 485 1194.99S561.22 1239.32 631.25 1239.32S708.78 1160.69 777.5 1160.69S858.61 1128.09 923.75 1128.09S1005.51 1124.09 1070 1124.09S1146.93 1205.83 1216.25 1205.83S1297.04 1222.95 1362.5 1222.95S1441.37 1202.19 1508.75 1202.19S1589.55 1124.67 1655 1124.67S1728.13 1249.57 1801.25 1249.57S1880.73 1184.46 1947.5 1184.46S2025.01 1133.29 2093.75 1133.29S2169.55 1149.46 2240 1149.46S2314.16 1131.84 2386.25 1131.84S2462.21 1206.83 2532.5 1206.83S2608 1185.37 2678.75 1185.37L2669 1300 L-100 1300 Z"></animate>
  <animateTransform attributeName="transform" type="translate" dur="2.7777777777777777s" begin="-2.5925925925925926s" repeatCount="indefinite" values="0;10;0" calcMode="spline" keySplines="0.3 0 0.7 1;0.3 0 0.7 1"></animateTransform>
</path></g>
</svg>