<?xml version="1.0" encoding="utf-8"?>
<svg xmlns="http://www.w3.org/2000/svg" xmlns:xlink="http://www.w3.org/1999/xlink" style="margin: auto; background: rgb(24, 48, 97); display: block; z-index: 1; position: relative; shape-rendering: auto;" width="2569" height="1300" preserveAspectRatio="xMidYMid" viewBox="0 0 2569 1300">
<g transform=""><path d="M-100 776.84C-40.63 828.94 -41.26 783.95 10.76 783.95S70.9 797.93 121.52 797.93S181.16 773.91 232.28 773.91S290.94 783.84 343.04 783.84S404.3 801 453.8 801S511.32 836.58 564.56 836.58S627.32 838.65 675.32 838.65S736.63 764.97 786.08 764.97S844.14 775.47 896.84 775.47S954.95 759.86 1007.6 759.86S1064.57 774.56 1118.36 774.56S1180.09 782.01 1229.12 782.01S1292.03 822.51 1339.88 822.51S1397.58 763.49 1450.64 763.49S1513.23 816.94 1561.4 816.94S1624.63 793.32 1672.16 793.32S1727.74 762.16 1782.92 762.16S1839.13 791.74 1893.68 791.74S1951.8 806.64 2004.44 806.64S2066.89 812.74 2115.2 812.74S2173.44 810.88 2225.96 810.88S2282.47 787.45 2336.72 787.45S2393.03 813.95 2447.48 813.95S2503.71 833.16 2558.24 833.16S2621.25 826.7 2669 826.7S2731.13 757.98 2779.76 757.98L2669 1300 L-100 1300 Z" fill="#183061" stroke-width="0">
</path><path d="M-100 844.9C-42.81 818.14 -42.84 864.75 12.71 864.75S72.23 809.56 125.43 809.56S190.29 825.08 238.14 825.08S298.96 793.52 350.85 793.52S409.46 786.38 463.57 786.38S526.86 859.45 576.28 859.45S638.44 820.58 689 820.58S753.42 786.96 801.71 786.96S862.61 795.2 914.42 795.2S979.28 789.77 1027.14 789.77S1088.61 849.17 1139.85 849.17S1203.09 827.21 1252.56 827.21S1310.71 807.99 1365.28 807.99S1428.44 819.42 1477.99 819.42S1542.35 853.88 1590.71 853.88S1655.57 788.23 1703.42 788.23S1764.61 822.14 1816.13 822.14S1874.09 791.23 1928.85 791.23S1986.97 826.51 2041.56 826.51S2101.19 834.49 2154.27 834.49S2213.79 814.93 2266.99 814.93S2325.22 843.19 2379.7 843.19S2437.1 811.66 2492.42 811.66S2555.13 821.32 2605.13 821.32S2669.93 844.02 2717.84 844.02L2669 1300 L-100 1300 Z" fill="#223064" stroke-width="0">
</path><path d="M-100 850.59C-40.81 865.71 -41.5 810.81 14.74 810.81S73.38 812.06 129.48 812.06S194.68 832.81 244.21 832.81S309.4 852.3 358.95 852.3S417.11 865.99 473.69 865.99S534.51 889.14 588.43 889.14S650.15 872.06 703.16 872.06S761.93 875.01 817.9 875.01S876.25 853.05 932.64 853.05S992.09 846.79 1047.38 846.79S1111.67 860.22 1162.11 860.22S1223.49 892.02 1276.85 892.02S1342.59 818.13 1391.59 818.13S1454.2 877.87 1506.33 877.87S1571.77 866.93 1621.06 866.93S1686.58 854.75 1735.8 854.75S1795.06 843.96 1850.54 843.96S1916.38 872.24 1965.28 872.24S2027.4 824.66 2080.01 824.66S2145.97 840.66 2194.75 840.66S2252.65 843.92 2309.49 843.92S2374.6 873 2424.23 873S2482.46 885.9 2538.96 885.9S2604.37 876.06 2653.7 876.06S2717.99 831.23 2768.44 831.23L2669 1300 L-100 1300 Z" fill="#2b2f66" stroke-width="0">
</path><path d="M-100 882.72C-34.82 862.71 -35.4 874.01 16.84 874.01S75.91 848.19 133.67 848.19S199.09 886.29 250.51 886.29S317.37 872.37 367.34 872.37S428.27 907.54 484.18 907.54S543.96 845.51 601.01 845.51S667.95 855.37 717.85 855.37S784 910.3 834.68 910.3S893.55 878.27 951.52 878.27S1010.86 875.28 1068.35 875.28S1134.84 870.09 1185.19 870.09S1247.92 909.69 1302.03 909.69S1365.88 906.42 1418.86 906.42S1478.73 881.04 1535.7 881.04S1601.16 904.75 1652.53 904.75S1715.76 854.23 1769.37 854.23S1832.22 874.94 1886.2 874.94S1949.62 927.44 2003.04 927.44S2063.03 903.39 2119.87 903.39S2183.55 849.9 2236.71 849.9S2300.66 892.8 2353.54 892.8S2412.45 903.08 2470.38 903.08S2530.83 855.33 2587.22 855.33S2651.34 855.85 2704.05 855.85L2669 1300 L-100 1300 Z" fill="#342f68" stroke-width="0">
</path><path d="M-100 871.82C-35.94 929.19 -36.31 935.51 19.01 935.51S85.89 924.96 138.02 924.96S200.3 940.14 257.03 940.14S318.61 919.99 376.05 919.99S442.96 905.34 495.06 905.34S555.64 922.64 614.07 922.64S680.41 895.15 733.08 895.15S793.23 891.87 852.09 891.87S917.46 933.61 971.1 933.61S1031.67 929.7 1090.11 929.7S1150.57 947.24 1209.13 947.24S1271.44 910.68 1328.14 910.68S1393.81 894.05 1447.15 894.05S1513.75 936.21 1566.16 936.21S1631.27 933.24 1685.17 933.24S1746.02 862.51 1804.18 862.51S1865.94 898.49 1923.19 898.49S1990.14 871.66 2042.21 871.66S2102.43 897.85 2161.22 897.85S2221.8 890.88 2280.23 890.88S2341.93 917.02 2399.24 917.02S2465.01 866.21 2518.25 866.21S2578.34 937.09 2637.26 937.09S2704.87 877.17 2756.28 877.17L2669 1300 L-100 1300 Z" fill="#3d2e69" stroke-width="0">
</path><path d="M-100 899.34C-35.21 915.16 -38.99 892.77 21.27 892.77S90.41 956.86 142.54 956.86S210.64 909.22 263.81 909.22S332.7 919.35 385.08 919.35S450.83 950.35 506.35 950.35S574.57 947.27 627.62 947.27S693.89 944.12 748.89 944.12S818.13 917.73 870.16 917.73S937.78 926.43 991.43 926.43S1055.33 885.81 1112.7 885.81S1174.33 917.97 1233.97 917.97S1299.12 888.37 1355.24 888.37S1419.19 958.44 1476.51 958.44S1543.35 930.19 1597.78 930.19S1659.37 965.81 1719.05 965.81S1783.3 890.47 1840.32 890.47S1902.7 974.9 1961.59 974.9S2024.58 926.53 2082.86 926.53S2143.91 919.12 2204.13 919.12S2273.12 925.11 2325.4 925.11S2387.84 936.18 2446.67 936.18S2508.93 973.51 2567.94 973.51S2631.52 934.98 2689.21 934.98L2669 1300 L-100 1300 Z" fill="#462c6a" stroke-width="0">
</path><path d="M-100 983.81C-33.9 948.25 -32.79 972.88 23.62 972.88S93.41 969.47 147.23 969.47S213.81 987.12 270.85 987.12S339.85 993.91 394.46 993.91S461.72 971.09 518.08 971.09S584.28 1007.04 641.7 1007.04S710.63 957.49 765.31 957.49S833.68 970.27 888.93 970.27S957.74 961.39 1012.54 961.39S1075.74 941.73 1136.16 941.73S1204.25 924.75 1259.78 924.75S1323.15 968.94 1383.39 968.94S1448.25 951.78 1507.01 951.78S1576.1 955.5 1630.62 955.5S1700.26 933.24 1754.24 933.24S1821.93 936.79 1877.86 936.79S1941.17 936.39 2001.47 936.39S2065.64 943.75 2125.09 943.75S2190.59 995.06 2248.71 995.06S2317.93 980.37 2372.32 980.37S2440.94 951.02 2495.94 951.02S2564.13 995.03 2619.55 995.03S2681.54 930.01 2743.17 930.01L2669 1300 L-100 1300 Z" fill="#4e2b6a" stroke-width="0">
</path><path d="M-100 969.48C-28.51 1020.66 -35.72 999.97 26.05 999.97S94.25 1029.87 152.11 1029.87S222.46 990.93 278.16 990.93S348.69 936.32 404.22 936.32S470.55 968.48 530.27 968.48S599.56 974.91 656.33 974.91S723.28 948.65 782.38 948.65S848.8 1005.45 908.44 1005.45S971.9 1027.45 1034.49 1027.45S1105.82 1022.34 1160.55 1022.34S1230.49 1007.37 1286.6 1007.37S1354.64 1006.62 1412.66 1006.62S1475.84 1011.6 1538.71 1011.6S1602.38 986.54 1664.76 986.54S1734.65 1007.29 1790.82 1007.29S1857.38 950.45 1916.87 950.45S1988.41 973.38 2042.93 973.38S2106.15 979.64 2168.98 979.64S2238.55 1006.52 2295.04 1006.52S2364.42 1016.21 2421.09 1016.21S2484.29 1007.22 2547.15 1007.22S2612.18 1008.79 2673.2 1008.79L2669 1300 L-100 1300 Z" fill="#572869" stroke-width="0">
</path><path d="M-100 1027.57C-28.05 969.65 -33.84 1048.54 28.59 1048.54S97.08 1032.53 157.18 1032.53S222.68 1035.18 285.77 1035.18S357.27 1042.9 414.37 1042.9S480.4 990.63 542.96 990.63S613.15 1000.68 671.55 1000.68S739.72 1039.59 800.14 1039.59S872.24 973.77 928.73 973.77S995.98 1041.43 1057.32 1041.43S1127.32 1062.87 1185.91 1062.87S1258.26 1017.21 1314.5 1017.21S1379.32 1018.89 1443.1 1018.89S1511.98 987.05 1571.69 987.05S1641.28 996.59 1700.28 996.59S1772.93 1059.56 1828.87 1059.56S1897.05 1042.64 1957.46 1042.64S2030.04 997 2086.05 997S2153.05 1018.32 2214.64 1018.32S2286.15 1056.16 2343.24 1056.16S2415.35 1034.55 2471.83 1034.55S2539.04 1011.93 2600.42 1011.93S2667.53 1006.93 2729.01 1006.93L2669 1300 L-100 1300 Z" fill="#5f2668" stroke-width="0">
</path><path d="M-100 1100.78C-30.27 1052.79 -29.07 1010.2 31.23 1010.2S102.07 1039.71 162.46 1039.71S229.54 1040.9 293.7 1040.9S364.34 1008.95 424.93 1008.95S494.16 1080.7 556.16 1080.7S628.42 1035.56 687.39 1035.56S759.73 1102.33 818.63 1102.33S885.19 1033.51 949.86 1033.51S1016.54 1031.38 1081.09 1031.38S1151.54 1063.1 1212.32 1063.1S1282.49 1033.78 1343.55 1033.78S1415.69 1019.96 1474.79 1019.96S1548.82 1017.17 1606.02 1017.17S1677.62 1050.89 1737.25 1050.89S1805 1054.97 1868.48 1054.97S1935.76 1010.94 1999.72 1010.94S2072.12 1069.53 2130.95 1069.53S2204.31 1075.94 2262.18 1075.94S2328.91 1077.95 2393.41 1077.95S2465.36 1061.78 2524.64 1061.78S2594.78 1039.97 2655.88 1039.97S2730.01 1000.26 2787.11 1000.26L2669 1300 L-100 1300 Z" fill="#662366" stroke-width="0">
</path><path d="M-100 1025.72C-24.72 1037.4 -26.36 1023.27 33.98 1023.27S108.41 1019.07 167.97 1019.07S242.4 1113.07 301.95 1113.07S370.2 1058.75 435.94 1058.75S506.84 1112.2 569.92 1112.2S644.81 1080.69 703.9 1080.69S776.69 1083.08 837.89 1083.08S907.77 1054.41 971.87 1054.41S1043.49 1131 1105.85 1131S1180.1 1068.74 1239.84 1068.74S1313.78 1050.16 1373.82 1050.16S1445.17 1129.35 1507.81 1129.35S1578.25 1038.37 1641.79 1038.37S1714.85 1054.02 1775.77 1054.02S1847.26 1054.66 1909.76 1054.66S1985.17 1037.4 2043.74 1037.4S2111.49 1048.17 2177.73 1048.17S2252.18 1131.47 2311.71 1131.47S2382.76 1066.08 2445.69 1066.08S2516.37 1081.89 2579.68 1081.89S2653.22 1040.52 2713.66 1040.52L2669 1300 L-100 1300 Z" fill="#6e2063" stroke-width="0">
</path><path d="M-100 1054.84C-29.4 1116.61 -26.69 1077.59 36.85 1077.59S105.34 1118.87 173.71 1118.87S244.04 1090.47 310.56 1090.47S387.48 1069.88 447.41 1069.88S521.59 1100.76 584.27 1100.76S656.53 1079.29 721.12 1079.29S795.6 1134.93 857.97 1134.93S927.49 1146.56 994.83 1146.56S1066.69 1044.29 1131.68 1044.29S1203.26 1076.44 1268.53 1076.44S1340.54 1093.24 1405.39 1093.24S1481.76 1119.56 1542.24 1119.56S1611.4 1061.3 1679.09 1061.3S1747.6 1118.86 1815.95 1118.86S1892.85 1085.15 1952.8 1085.15S2026.49 1156.04 2089.65 1156.04S2159.58 1150.87 2226.51 1150.87S2302.55 1092.51 2363.36 1092.51S2434.77 1069.19 2500.21 1069.19S2574.72 1107.64 2637.07 1107.64S2707.94 1146.97 2773.92 1146.97L2669 1300 L-100 1300 Z" fill="#751c60" stroke-width="0">
</path><path d="M-100 1143.59C-26.67 1119.49 -25.51 1134.1 39.85 1134.1S116.97 1075.06 179.7 1075.06S254.73 1172.37 319.55 1172.37S394.86 1113.07 459.39 1113.07S534.87 1090.24 599.24 1090.24S672.69 1086.32 739.09 1086.32S811.02 1174.95 878.94 1174.95S956.12 1109.05 1018.79 1109.05S1092.3 1133.41 1158.64 1133.41S1230.74 1117.49 1298.48 1117.49S1373.59 1134.67 1438.33 1134.67S1509.66 1135.22 1578.18 1135.22S1653.66 1170.62 1718.03 1170.62S1789.29 1134.62 1857.88 1134.62S1934.88 1172.12 1997.73 1172.12S2074.77 1143.77 2137.58 1143.77S2209.86 1151.39 2277.42 1151.39S2348.88 1186.89 2417.27 1186.89S2489.8 1136.63 2557.12 1136.63S2633.87 1143.52 2696.97 1143.52L2669 1300 L-100 1300 Z" fill="#7c195c" stroke-width="0">
</path><path d="M-100 1168.07C-20.03 1127.09 -20.07 1112.12 42.98 1112.12S119.39 1171.39 185.96 1171.39S263.09 1133.83 328.93 1133.83S402.96 1138.04 471.91 1138.04S547 1104.9 614.89 1104.9S688.83 1141.49 757.87 1141.49S835.33 1177.05 900.84 1177.05S973.92 1143.64 1043.82 1143.64S1120.05 1144.28 1186.8 1144.28S1263.73 1164.33 1329.78 1164.33S1402.78 1195.11 1472.75 1195.11S1545.02 1144.55 1615.73 1144.55S1692.8 1136.54 1758.71 1136.54S1832.84 1176.98 1901.69 1176.98S1980.54 1166.11 2044.66 1166.11S2123.87 1138.49 2187.64 1138.49S2261.71 1094.29 2330.62 1094.29S2404.33 1189.26 2473.6 1189.26S2545.7 1137.83 2616.57 1137.83S2694.54 1192.17 2759.55 1192.17L2669 1300 L-100 1300 Z" fill="#821558" stroke-width="0">
</path><path d="M-100 1144.03C-23.48 1168.26 -18.86 1218.06 46.25 1218.06S124.07 1160.39 192.5 1160.39S272.71 1168.49 338.75 1168.49S420.4 1194.99 485 1194.99S561.22 1239.32 631.25 1239.32S708.78 1160.69 777.5 1160.69S858.61 1128.09 923.75 1128.09S1005.51 1124.09 1070 1124.09S1146.93 1205.83 1216.25 1205.83S1297.04 1222.95 1362.5 1222.95S1441.37 1202.19 1508.75 1202.19S1589.55 1124.67 1655 1124.67S1728.13 1249.57 1801.25 1249.57S1880.73 1184.46 1947.5 1184.46S2025.01 1133.29 2093.75 1133.29S2169.55 1149.46 2240 1149.46S2314.16 1131.84 2386.25 1131.84S2462.21 1206.83 2532.5 1206.83S2608 1185.37 2678.75 1185.37L2669 1300 L-100 1300 Z" fill="#881153" stroke-width="0">
</path></g>
</svg>